<?xml version="1.0" standalone="no"?><!DOCTYPE svg PUBLIC "-//W3C//DTD SVG 1.1//EN" "http://www.w3.org/Graphics/SVG/1.1/DTD/svg11.dtd"><svg t="1619507238720" class="icon" viewBox="0 0 1024 1024" version="1.1" xmlns="http://www.w3.org/2000/svg" p-id="4343" xmlns:xlink="http://www.w3.org/1999/xlink" width="200" height="200"><defs><style type="text/css"></style></defs><path d="M512 0C230.4 0 0 230.4 0 512s230.4 512 512 512 512-230.4 512-512S793.6 0 512 0zM512 960c-249.6 0-448-198.4-448-448 0-249.6 198.4-448 448-448s448 198.4 448 448C960 761.6 761.6 960 512 960z" p-id="4344"></path><path d="M198.4 435.2l192 0c19.2 0 32-12.8 32-32 0-19.2-12.8-32-32-32l-192 0C179.2 371.2 166.4 384 166.4 403.2 166.4 416 179.2 435.2 198.4 435.2z" p-id="4345"></path><path d="M198.4 563.2l192 0c19.2 0 32-12.8 32-32 0-19.2-12.8-32-32-32l-192 0C179.2 499.2 166.4 512 166.4 531.2 166.4 544 179.2 563.2 198.4 563.2z" p-id="4346"></path><path d="M390.4 627.2l-192 0c-19.2 0-32 12.8-32 32 0 19.2 12.8 32 32 32l192 0c19.2 0 32-12.8 32-32C422.4 640 409.6 627.2 390.4 627.2z" p-id="4347"></path><path d="M857.6 691.2c0-70.4-38.4-134.4-102.4-166.4 19.2-25.6 38.4-51.2 38.4-89.6 0-70.4-57.6-128-128-128-70.4 0-128 57.6-128 128 0 32 12.8 64 38.4 89.6C512 550.4 473.6 614.4 473.6 691.2c0 0 0 0 0 0l0 0c0 19.2 12.8 32 32 32s32-12.8 32-32l0 0c0 0 0 0 0 0 0-70.4 57.6-128 128-128s128 57.6 128 128c0 0 0 0 0 0l0 0c0 19.2 12.8 32 32 32S857.6 704 857.6 691.2L857.6 691.2C857.6 691.2 857.6 691.2 857.6 691.2zM665.6 499.2c-38.4 0-64-25.6-64-64 0-38.4 25.6-64 64-64 38.4 0 64 25.6 64 64C729.6 467.2 704 499.2 665.6 499.2z" p-id="4348"></path></svg>